<?xml version="1.0" encoding="UTF-8" standalone="no"?>
<!DOCTYPE svg PUBLIC "-//W3C//DTD SVG 1.1//EN"
 "http://www.w3.org/Graphics/SVG/1.1/DTD/svg11.dtd">
<!-- Generated by graphviz version 2.38.0 (20140413.2041)
 -->
<!-- Title: G Pages: 1 -->
<svg width="1242pt" height="675pt"
 viewBox="0.00 0.00 1242.00 675.00" xmlns="http://www.w3.org/2000/svg" xmlns:xlink="http://www.w3.org/1999/xlink">
<g id="graph0" class="graph" transform="scale(1 1) rotate(0) translate(4 671)">
<title>G</title>
<polygon fill="white" stroke="none" points="-4,4 -4,-671 1238,-671 1238,4 -4,4"/>
<!-- apparat/cli -->
<g id="node1" class="node"><title>apparat/cli</title>
<path fill="#eeeeee" stroke="black" stroke-width="2" d="M597,-667C597,-667 547,-667 547,-667 541,-667 535,-661 535,-655 535,-655 535,-643 535,-643 535,-637 541,-631 547,-631 547,-631 597,-631 597,-631 603,-631 609,-637 609,-643 609,-643 609,-655 609,-655 609,-661 603,-667 597,-667"/>
<text text-anchor="middle" x="572" y="-645.3" font-family="Times New Roman,serif" font-size="14.00" fill="#314b5f">apparat/cli</text>
</g>
<!-- php -->
<g id="node2" class="node"><title>php</title>
<path fill="#eeeeee" stroke="black" d="M544,-36C544,-36 514,-36 514,-36 508,-36 502,-30 502,-24 502,-24 502,-12 502,-12 502,-6 508,-0 514,-0 514,-0 544,-0 544,-0 550,-0 556,-6 556,-12 556,-12 556,-24 556,-24 556,-30 550,-36 544,-36"/>
<text text-anchor="middle" x="529" y="-14.3" font-family="Times New Roman,serif" font-size="14.00" fill="#314b5f">php</text>
</g>
<!-- apparat/cli&#45;&gt;php -->
<g id="edge1" class="edge"><title>apparat/cli&#45;&gt;php</title>
<path fill="none" stroke="#1a2833" d="M534.91,-646.67C408.158,-641.637 0,-621.223 0,-567 0,-567 0,-567 0,-100 0,-50.2271 370.638,-27.0264 491.435,-20.7867"/>
<polygon fill="#1a2833" stroke="#1a2833" points="491.863,-24.2696 501.673,-20.2678 491.508,-17.2786 491.863,-24.2696"/>
<text text-anchor="middle" x="14.5" y="-331" font-family="Times New Roman,serif" font-size="10.00" fill="#767676">&gt;=5.6.0</text>
</g>
<!-- apparat/object -->
<g id="node3" class="node"><title>apparat/object</title>
<path fill="#eeeeee" stroke="black" d="M1038,-584C1038,-584 898,-584 898,-584 892,-584 886,-578 886,-572 886,-572 886,-560 886,-560 886,-554 892,-548 898,-548 898,-548 1038,-548 1038,-548 1044,-548 1050,-554 1050,-560 1050,-560 1050,-572 1050,-572 1050,-578 1044,-584 1038,-584"/>
<text text-anchor="middle" x="968" y="-562.3" font-family="Times New Roman,serif" font-size="14.00" fill="#314b5f">apparat/object: dev&#45;master</text>
</g>
<!-- apparat/cli&#45;&gt;apparat/object -->
<g id="edge2" class="edge"><title>apparat/cli&#45;&gt;apparat/object</title>
<path fill="none" stroke="#1a2833" d="M609.308,-645.511C661.011,-641.511 757.109,-632.086 837,-613 863.89,-606.576 892.982,-596.674 916.904,-587.701"/>
<polygon fill="#1a2833" stroke="#1a2833" points="918.377,-590.885 926.478,-584.056 915.887,-584.343 918.377,-590.885"/>
<text text-anchor="middle" x="896.5" y="-605" font-family="Times New Roman,serif" font-size="10.00" fill="#767676">dev&#45;master</text>
</g>
<!-- dominicsayers/isemail -->
<g id="node4" class="node"><title>dominicsayers/isemail</title>
<path fill="#eeeeee" stroke="black" d="M1020,-501C1020,-501 838,-501 838,-501 832,-501 826,-495 826,-489 826,-489 826,-477 826,-477 826,-471 832,-465 838,-465 838,-465 1020,-465 1020,-465 1026,-465 1032,-471 1032,-477 1032,-477 1032,-489 1032,-489 1032,-495 1026,-501 1020,-501"/>
<text text-anchor="middle" x="929" y="-479.3" font-family="Times New Roman,serif" font-size="14.00" fill="#314b5f">dominicsayers/isemail: dev&#45;master</text>
</g>
<!-- apparat/cli&#45;&gt;dominicsayers/isemail -->
<g id="edge3" class="edge"><title>apparat/cli&#45;&gt;dominicsayers/isemail</title>
<path fill="none" stroke="#1a2833" d="M604.61,-630.952C654.185,-605.304 751.763,-555.872 837,-519 848.273,-514.123 860.468,-509.226 872.179,-504.704"/>
<polygon fill="#1a2833" stroke="#1a2833" points="873.778,-507.84 881.871,-501.003 871.281,-501.301 873.778,-507.84"/>
<text text-anchor="middle" x="794.5" y="-563.5" font-family="Times New Roman,serif" font-size="10.00" fill="#767676">dev&#45;master</text>
</g>
<!-- symfony/console -->
<g id="node5" class="node"><title>symfony/console</title>
<path fill="#eeeeee" stroke="black" d="M385.5,-310C385.5,-310 228.5,-310 228.5,-310 222.5,-310 216.5,-304 216.5,-298 216.5,-298 216.5,-286 216.5,-286 216.5,-280 222.5,-274 228.5,-274 228.5,-274 385.5,-274 385.5,-274 391.5,-274 397.5,-280 397.5,-286 397.5,-286 397.5,-298 397.5,-298 397.5,-304 391.5,-310 385.5,-310"/>
<text text-anchor="middle" x="307" y="-288.3" font-family="Times New Roman,serif" font-size="14.00" fill="#314b5f">symfony/console: dev&#45;master</text>
</g>
<!-- apparat/cli&#45;&gt;symfony/console -->
<g id="edge4" class="edge"><title>apparat/cli&#45;&gt;symfony/console</title>
<path fill="none" stroke="#1a2833" d="M534.823,-642.935C469.041,-632.923 339,-607.952 339,-567 339,-567 339,-567 339,-374 339,-354.717 331.058,-334.545 323.088,-319.154"/>
<polygon fill="#1a2833" stroke="#1a2833" points="326.074,-317.32 318.192,-310.24 319.938,-320.69 326.074,-317.32"/>
<text text-anchor="middle" x="361.5" y="-480.5" font-family="Times New Roman,serif" font-size="10.00" fill="#767676">dev&#45;master</text>
</g>
<!-- apparat/resource -->
<g id="node6" class="node"><title>apparat/resource</title>
<path fill="#eeeeee" stroke="black" d="M758,-501C758,-501 604,-501 604,-501 598,-501 592,-495 592,-489 592,-489 592,-477 592,-477 592,-471 598,-465 604,-465 604,-465 758,-465 758,-465 764,-465 770,-471 770,-477 770,-477 770,-489 770,-489 770,-495 764,-501 758,-501"/>
<text text-anchor="middle" x="681" y="-479.3" font-family="Times New Roman,serif" font-size="14.00" fill="#314b5f">apparat/resource: dev&#45;master</text>
</g>
<!-- apparat/cli&#45;&gt;apparat/resource -->
<g id="edge5" class="edge"><title>apparat/cli&#45;&gt;apparat/resource</title>
<path fill="none" stroke="#1a2833" stroke-dasharray="5,2" d="M583.459,-630.759C602.726,-601.77 641.698,-543.134 664.109,-509.414"/>
<polygon fill="#1a2833" stroke="#1a2833" points="667.074,-511.276 669.695,-501.01 661.244,-507.401 667.074,-511.276"/>
<text text-anchor="middle" x="650.5" y="-563.5" font-family="Times New Roman,serif" font-size="10.00" fill="#767676">@dev</text>
</g>
<!-- apparat/kernel -->
<g id="node7" class="node"><title>apparat/kernel</title>
<path fill="#eeeeee" stroke="black" d="M757.5,-310C757.5,-310 618.5,-310 618.5,-310 612.5,-310 606.5,-304 606.5,-298 606.5,-298 606.5,-286 606.5,-286 606.5,-280 612.5,-274 618.5,-274 618.5,-274 757.5,-274 757.5,-274 763.5,-274 769.5,-280 769.5,-286 769.5,-286 769.5,-298 769.5,-298 769.5,-304 763.5,-310 757.5,-310"/>
<text text-anchor="middle" x="688" y="-288.3" font-family="Times New Roman,serif" font-size="14.00" fill="#314b5f">apparat/kernel: dev&#45;master</text>
</g>
<!-- apparat/cli&#45;&gt;apparat/kernel -->
<g id="edge6" class="edge"><title>apparat/cli&#45;&gt;apparat/kernel</title>
<path fill="none" stroke="#1a2833" stroke-dasharray="5,2" d="M564.085,-630.705C557.432,-614.573 549,-589.659 549,-567 549,-567 549,-567 549,-374 549,-344.891 572.037,-326.059 599.354,-313.96"/>
<polygon fill="#1a2833" stroke="#1a2833" points="600.828,-317.138 608.755,-310.11 598.175,-310.661 600.828,-317.138"/>
<text text-anchor="middle" x="561.5" y="-480.5" font-family="Times New Roman,serif" font-size="10.00" fill="#767676">@dev</text>
</g>
<!-- apparat/object&#45;&gt;php -->
<g id="edge14" class="edge"><title>apparat/object&#45;&gt;php</title>
<path fill="none" stroke="#1a2833" d="M1050.23,-552.739C1118.68,-540.139 1205,-517.59 1205,-484 1205,-484 1205,-484 1205,-100 1205,-35.2003 708.987,-21.9807 566.721,-19.5217"/>
<polygon fill="#1a2833" stroke="#1a2833" points="566.394,-16.016 556.337,-19.3507 566.278,-23.015 566.394,-16.016"/>
<text text-anchor="middle" x="1219.5" y="-289.5" font-family="Times New Roman,serif" font-size="10.00" fill="#767676">&gt;=5.6.0</text>
</g>
<!-- apparat/object&#45;&gt;dominicsayers/isemail -->
<g id="edge12" class="edge"><title>apparat/object&#45;&gt;dominicsayers/isemail</title>
<path fill="none" stroke="#1a2833" d="M959.729,-547.822C954.507,-536.976 947.654,-522.744 941.746,-510.472"/>
<polygon fill="#1a2833" stroke="#1a2833" points="944.751,-508.645 937.259,-501.153 938.444,-511.682 944.751,-508.645"/>
<text text-anchor="middle" x="973.5" y="-522" font-family="Times New Roman,serif" font-size="10.00" fill="#767676">dev&#45;master</text>
</g>
<!-- apparat/object&#45;&gt;apparat/resource -->
<g id="edge11" class="edge"><title>apparat/object&#45;&gt;apparat/resource</title>
<path fill="none" stroke="#1a2833" d="M907.485,-547.921C861.789,-535.024 798.988,-517.3 751.105,-503.786"/>
<polygon fill="#1a2833" stroke="#1a2833" points="752.007,-500.404 741.432,-501.056 750.105,-507.14 752.007,-500.404"/>
<text text-anchor="middle" x="864.5" y="-522" font-family="Times New Roman,serif" font-size="10.00" fill="#767676">dev&#45;master</text>
</g>
<!-- apparat/object&#45;&gt;apparat/kernel -->
<g id="edge16" class="edge"><title>apparat/object&#45;&gt;apparat/kernel</title>
<path fill="none" stroke="#1a2833" stroke-dasharray="5,2" d="M885.835,-554.205C854.389,-548.533 823.334,-540.535 812,-530 771.527,-492.381 800.89,-460.333 776,-411 758.366,-376.049 730.326,-340.674 710.647,-317.898"/>
<polygon fill="#1a2833" stroke="#1a2833" points="713.035,-315.312 703.811,-310.101 707.772,-319.927 713.035,-315.312"/>
<text text-anchor="middle" x="799.5" y="-426.5" font-family="Times New Roman,serif" font-size="10.00" fill="#767676">@dev</text>
</g>
<!-- league/commonmark -->
<g id="node11" class="node"><title>league/commonmark</title>
<path fill="#eeeeee" stroke="black" d="M1003.5,-393C1003.5,-393 854.5,-393 854.5,-393 848.5,-393 842.5,-387 842.5,-381 842.5,-381 842.5,-369 842.5,-369 842.5,-363 848.5,-357 854.5,-357 854.5,-357 1003.5,-357 1003.5,-357 1009.5,-357 1015.5,-363 1015.5,-369 1015.5,-369 1015.5,-381 1015.5,-381 1015.5,-387 1009.5,-393 1003.5,-393"/>
<text text-anchor="middle" x="929" y="-371.3" font-family="Times New Roman,serif" font-size="14.00" fill="#314b5f">league/commonmark: 0.13.4</text>
</g>
<!-- apparat/object&#45;&gt;league/commonmark -->
<g id="edge13" class="edge"><title>apparat/object&#45;&gt;league/commonmark</title>
<path fill="none" stroke="#1a2833" d="M997.446,-547.997C1013.56,-536.9 1032.03,-520.804 1041,-501 1047.6,-486.427 1047.95,-479.409 1041,-465 1026.96,-435.916 998.29,-413.415 973.471,-398.314"/>
<polygon fill="#1a2833" stroke="#1a2833" points="974.934,-395.116 964.535,-393.087 971.399,-401.158 974.934,-395.116"/>
<text text-anchor="middle" x="1057.5" y="-480.5" font-family="Times New Roman,serif" font-size="10.00" fill="#767676">^0.13</text>
</g>
<!-- psr/http&#45;message -->
<g id="node12" class="node"><title>psr/http&#45;message</title>
<path fill="#eeeeee" stroke="black" d="M1178,-447C1178,-447 1056,-447 1056,-447 1050,-447 1044,-441 1044,-435 1044,-435 1044,-423 1044,-423 1044,-417 1050,-411 1056,-411 1056,-411 1178,-411 1178,-411 1184,-411 1190,-417 1190,-423 1190,-423 1190,-435 1190,-435 1190,-441 1184,-447 1178,-447"/>
<text text-anchor="middle" x="1117" y="-425.3" font-family="Times New Roman,serif" font-size="14.00" fill="#314b5f">psr/http&#45;message: 1.0.1</text>
</g>
<!-- apparat/object&#45;&gt;psr/http&#45;message -->
<g id="edge15" class="edge"><title>apparat/object&#45;&gt;psr/http&#45;message</title>
<path fill="none" stroke="#1a2833" d="M1050.21,-549.806C1061.86,-544.931 1072.94,-538.495 1082,-530 1102.27,-510.996 1110.81,-479.596 1114.4,-457.049"/>
<polygon fill="#1a2833" stroke="#1a2833" points="1117.87,-457.469 1115.76,-447.087 1110.94,-456.521 1117.87,-457.469"/>
<text text-anchor="middle" x="1100.5" y="-522" font-family="Times New Roman,serif" font-size="10.00" fill="#767676">~1.0</text>
</g>
<!-- symfony/console&#45;&gt;php -->
<g id="edge28" class="edge"><title>symfony/console&#45;&gt;php</title>
<path fill="none" stroke="#1a2833" d="M261.592,-273.988C241.023,-263.73 218.726,-248.427 207,-227 199.319,-212.964 202.463,-206.343 207,-191 208.014,-187.572 274.524,-85.5787 277,-83 292.459,-66.9008 297.356,-62.4857 318,-54 375.745,-30.2636 448.656,-22.6088 491.902,-20.1504"/>
<polygon fill="#1a2833" stroke="#1a2833" points="492.159,-23.642 501.97,-19.6421 491.806,-16.6509 492.159,-23.642"/>
<text text-anchor="middle" x="255.5" y="-152.5" font-family="Times New Roman,serif" font-size="10.00" fill="#767676">&gt;=5.5.9</text>
</g>
<!-- psr/log -->
<g id="node15" class="node"><title>psr/log</title>
<path fill="#eeeeee" stroke="black" d="M411,-119C411,-119 345,-119 345,-119 339,-119 333,-113 333,-107 333,-107 333,-95 333,-95 333,-89 339,-83 345,-83 345,-83 411,-83 411,-83 417,-83 423,-89 423,-95 423,-95 423,-107 423,-107 423,-113 417,-119 411,-119"/>
<text text-anchor="middle" x="378" y="-97.3" font-family="Times New Roman,serif" font-size="14.00" fill="#314b5f">psr/log: 1.0.2</text>
</g>
<!-- symfony/console&#45;&gt;psr/log -->
<g id="edge31" class="edge"><title>symfony/console&#45;&gt;psr/log</title>
<path fill="none" stroke="#1a2833" stroke-dasharray="5,2" d="M330.79,-273.983C344.857,-262.463 361.531,-245.928 370,-227 384.051,-195.598 383.79,-155.27 381.541,-129.041"/>
<polygon fill="#1a2833" stroke="#1a2833" points="385.02,-128.659 380.53,-119.062 378.056,-129.364 385.02,-128.659"/>
<text text-anchor="middle" x="388.5" y="-206.5" font-family="Times New Roman,serif" font-size="10.00" fill="#767676">~1.0</text>
</g>
<!-- symfony/debug -->
<g id="node16" class="node"><title>symfony/debug</title>
<path fill="#eeeeee" stroke="black" d="M349.5,-227C349.5,-227 228.5,-227 228.5,-227 222.5,-227 216.5,-221 216.5,-215 216.5,-215 216.5,-203 216.5,-203 216.5,-197 222.5,-191 228.5,-191 228.5,-191 349.5,-191 349.5,-191 355.5,-191 361.5,-197 361.5,-203 361.5,-203 361.5,-215 361.5,-215 361.5,-221 355.5,-227 349.5,-227"/>
<text text-anchor="middle" x="289" y="-205.3" font-family="Times New Roman,serif" font-size="14.00" fill="#314b5f">symfony/debug: v3.2.1</text>
</g>
<!-- symfony/console&#45;&gt;symfony/debug -->
<g id="edge29" class="edge"><title>symfony/console&#45;&gt;symfony/debug</title>
<path fill="none" stroke="#1a2833" d="M303.183,-273.822C300.82,-263.19 297.735,-249.306 295.045,-237.204"/>
<polygon fill="#1a2833" stroke="#1a2833" points="298.398,-236.156 292.812,-227.153 291.565,-237.674 298.398,-236.156"/>
<text text-anchor="middle" x="317.5" y="-248" font-family="Times New Roman,serif" font-size="10.00" fill="#767676">~2.8|~3.0</text>
</g>
<!-- symfony/polyfill&#45;mbstring -->
<g id="node17" class="node"><title>symfony/polyfill&#45;mbstring</title>
<path fill="#eeeeee" stroke="black" d="M205,-173C205,-173 27,-173 27,-173 21,-173 15,-167 15,-161 15,-161 15,-149 15,-149 15,-143 21,-137 27,-137 27,-137 205,-137 205,-137 211,-137 217,-143 217,-149 217,-149 217,-161 217,-161 217,-167 211,-173 205,-173"/>
<text text-anchor="middle" x="116" y="-151.3" font-family="Times New Roman,serif" font-size="14.00" fill="#314b5f">symfony/polyfill&#45;mbstring: v1.3.0</text>
</g>
<!-- symfony/console&#45;&gt;symfony/polyfill&#45;mbstring -->
<g id="edge30" class="edge"><title>symfony/console&#45;&gt;symfony/polyfill&#45;mbstring</title>
<path fill="none" stroke="#1a2833" d="M216.447,-284.177C195.083,-278.918 173.694,-270.218 157,-256 135.419,-237.62 125.031,-206.108 120.141,-183.363"/>
<polygon fill="#1a2833" stroke="#1a2833" points="123.532,-182.464 118.208,-173.304 116.658,-183.785 123.532,-182.464"/>
<text text-anchor="middle" x="165.5" y="-248" font-family="Times New Roman,serif" font-size="10.00" fill="#767676">~1.0</text>
</g>
<!-- apparat/resource&#45;&gt;php -->
<g id="edge19" class="edge"><title>apparat/resource&#45;&gt;php</title>
<path fill="none" stroke="#1a2833" d="M691.904,-464.809C703.067,-447.032 720.753,-418.371 735,-393 793.633,-288.591 842.019,-254.513 819,-137 809.778,-89.9235 794.981,-70.6722 750,-54 688.121,-31.0646 611.048,-23.1563 566.195,-20.431"/>
<polygon fill="#1a2833" stroke="#1a2833" points="566.231,-16.9278 556.053,-19.8705 565.845,-23.9171 566.231,-16.9278"/>
<text text-anchor="middle" x="831.5" y="-248" font-family="Times New Roman,serif" font-size="10.00" fill="#767676">&gt;=5.6.0</text>
</g>
<!-- apparat/resource&#45;&gt;apparat/kernel -->
<g id="edge17" class="edge"><title>apparat/resource&#45;&gt;apparat/kernel</title>
<path fill="none" stroke="#1a2833" d="M681.634,-464.894C682.851,-432.016 685.527,-359.761 686.992,-320.204"/>
<polygon fill="#1a2833" stroke="#1a2833" points="690.49,-320.326 687.363,-310.203 683.495,-320.067 690.49,-320.326"/>
<text text-anchor="middle" x="708.5" y="-372.5" font-family="Times New Roman,serif" font-size="10.00" fill="#767676">dev&#45;master</text>
</g>
<!-- apparat/resource&#45;&gt;league/commonmark -->
<g id="edge18" class="edge"><title>apparat/resource&#45;&gt;league/commonmark</title>
<path fill="none" stroke="#1a2833" d="M710.105,-464.976C717.715,-459.765 725.578,-453.637 732,-447 745.203,-433.355 739.334,-421.727 755,-411 777.545,-395.564 805.347,-386.622 832.06,-381.527"/>
<polygon fill="#1a2833" stroke="#1a2833" points="832.98,-384.92 842.232,-379.757 831.78,-378.023 832.98,-384.92"/>
<text text-anchor="middle" x="765.5" y="-426.5" font-family="Times New Roman,serif" font-size="10.00" fill="#767676">^0.13</text>
</g>
<!-- symfony/yaml -->
<g id="node13" class="node"><title>symfony/yaml</title>
<path fill="#eeeeee" stroke="black" d="M507.5,-393C507.5,-393 394.5,-393 394.5,-393 388.5,-393 382.5,-387 382.5,-381 382.5,-381 382.5,-369 382.5,-369 382.5,-363 388.5,-357 394.5,-357 394.5,-357 507.5,-357 507.5,-357 513.5,-357 519.5,-363 519.5,-369 519.5,-369 519.5,-381 519.5,-381 519.5,-387 513.5,-393 507.5,-393"/>
<text text-anchor="middle" x="451" y="-371.3" font-family="Times New Roman,serif" font-size="14.00" fill="#314b5f">symfony/yaml: v3.2.1</text>
</g>
<!-- apparat/resource&#45;&gt;symfony/yaml -->
<g id="edge20" class="edge"><title>apparat/resource&#45;&gt;symfony/yaml</title>
<path fill="none" stroke="#1a2833" d="M644.047,-464.969C604.178,-446.595 540.615,-417.301 497.408,-397.388"/>
<polygon fill="#1a2833" stroke="#1a2833" points="498.79,-394.171 488.243,-393.164 495.86,-400.529 498.79,-394.171"/>
<text text-anchor="middle" x="609" y="-426.5" font-family="Times New Roman,serif" font-size="10.00" fill="#767676">^3.1</text>
</g>
<!-- apparat/kernel&#45;&gt;php -->
<g id="edge9" class="edge"><title>apparat/kernel&#45;&gt;php</title>
<path fill="none" stroke="#1a2833" d="M706.104,-273.822C743.645,-236.129 822.643,-144.624 775,-83 749.612,-50.1616 628.701,-31.026 566.363,-23.1867"/>
<polygon fill="#1a2833" stroke="#1a2833" points="566.513,-19.679 556.162,-21.9391 565.663,-26.6273 566.513,-19.679"/>
<text text-anchor="middle" x="804.5" y="-152.5" font-family="Times New Roman,serif" font-size="10.00" fill="#767676">&gt;=5.6.0</text>
</g>
<!-- level&#45;2/dice -->
<g id="node8" class="node"><title>level&#45;2/dice</title>
<path fill="#eeeeee" stroke="black" d="M670,-173C670,-173 580,-173 580,-173 574,-173 568,-167 568,-161 568,-161 568,-149 568,-149 568,-143 574,-137 580,-137 580,-137 670,-137 670,-137 676,-137 682,-143 682,-149 682,-149 682,-161 682,-161 682,-167 676,-173 670,-173"/>
<text text-anchor="middle" x="625" y="-151.3" font-family="Times New Roman,serif" font-size="14.00" fill="#314b5f">level&#45;2/dice: 2.0.3</text>
</g>
<!-- apparat/kernel&#45;&gt;level&#45;2/dice -->
<g id="edge7" class="edge"><title>apparat/kernel&#45;&gt;level&#45;2/dice</title>
<path fill="none" stroke="#1a2833" d="M688.019,-273.823C687.303,-252.836 683.631,-216.928 668,-191 665.644,-187.092 662.686,-183.431 659.43,-180.06"/>
<polygon fill="#1a2833" stroke="#1a2833" points="661.668,-177.363 651.943,-173.159 656.924,-182.51 661.668,-177.363"/>
<text text-anchor="middle" x="693.5" y="-248" font-family="Times New Roman,serif" font-size="10.00" fill="#767676">2.*</text>
</g>
<!-- monolog/monolog -->
<g id="node9" class="node"><title>monolog/monolog</title>
<path fill="#eeeeee" stroke="black" d="M647.5,-227C647.5,-227 510.5,-227 510.5,-227 504.5,-227 498.5,-221 498.5,-215 498.5,-215 498.5,-203 498.5,-203 498.5,-197 504.5,-191 510.5,-191 510.5,-191 647.5,-191 647.5,-191 653.5,-191 659.5,-197 659.5,-203 659.5,-203 659.5,-215 659.5,-215 659.5,-221 653.5,-227 647.5,-227"/>
<text text-anchor="middle" x="579" y="-205.3" font-family="Times New Roman,serif" font-size="14.00" fill="#314b5f">monolog/monolog: 1.22.0</text>
</g>
<!-- apparat/kernel&#45;&gt;monolog/monolog -->
<g id="edge8" class="edge"><title>apparat/kernel&#45;&gt;monolog/monolog</title>
<path fill="none" stroke="#1a2833" d="M664.884,-273.822C648.987,-262.009 627.687,-246.18 610.277,-233.242"/>
<polygon fill="#1a2833" stroke="#1a2833" points="612.197,-230.309 602.083,-227.153 608.022,-235.927 612.197,-230.309"/>
<text text-anchor="middle" x="646.5" y="-248" font-family="Times New Roman,serif" font-size="10.00" fill="#767676">1.x</text>
</g>
<!-- vlucas/phpdotenv -->
<g id="node10" class="node"><title>vlucas/phpdotenv</title>
<path fill="#eeeeee" stroke="black" d="M754.5,-119C754.5,-119 621.5,-119 621.5,-119 615.5,-119 609.5,-113 609.5,-107 609.5,-107 609.5,-95 609.5,-95 609.5,-89 615.5,-83 621.5,-83 621.5,-83 754.5,-83 754.5,-83 760.5,-83 766.5,-89 766.5,-95 766.5,-95 766.5,-107 766.5,-107 766.5,-113 760.5,-119 754.5,-119"/>
<text text-anchor="middle" x="688" y="-97.3" font-family="Times New Roman,serif" font-size="14.00" fill="#314b5f">vlucas/phpdotenv: v2.4.0</text>
</g>
<!-- apparat/kernel&#45;&gt;vlucas/phpdotenv -->
<g id="edge10" class="edge"><title>apparat/kernel&#45;&gt;vlucas/phpdotenv</title>
<path fill="none" stroke="#1a2833" d="M697.676,-273.706C700.258,-268.215 702.692,-262.006 704,-256 713.515,-212.3 703.903,-160.353 696.008,-129.338"/>
<polygon fill="#1a2833" stroke="#1a2833" points="699.285,-128.045 693.321,-119.288 692.522,-129.853 699.285,-128.045"/>
<text text-anchor="middle" x="714.5" y="-206.5" font-family="Times New Roman,serif" font-size="10.00" fill="#767676">2.*</text>
</g>
<!-- level&#45;2/dice&#45;&gt;php -->
<g id="edge23" class="edge"><title>level&#45;2/dice&#45;&gt;php</title>
<path fill="none" stroke="#1a2833" d="M591.656,-136.838C584.159,-131.844 576.735,-125.855 571,-119 553.14,-97.6524 541.902,-67.6184 535.594,-46.0459"/>
<polygon fill="#1a2833" stroke="#1a2833" points="538.915,-44.9226 532.886,-36.2107 532.166,-46.781 538.915,-44.9226"/>
<text text-anchor="middle" x="585.5" y="-98.5" font-family="Times New Roman,serif" font-size="10.00" fill="#767676">&gt;=5.6.0</text>
</g>
<!-- monolog/monolog&#45;&gt;php -->
<g id="edge24" class="edge"><title>monolog/monolog&#45;&gt;php</title>
<path fill="none" stroke="#1a2833" d="M562.038,-190.699C546.898,-173.945 525.8,-147.027 517,-119 509.427,-94.8811 514.235,-66.1107 519.855,-45.635"/>
<polygon fill="#1a2833" stroke="#1a2833" points="523.216,-46.6127 522.717,-36.0296 516.507,-44.6136 523.216,-46.6127"/>
<text text-anchor="middle" x="531.5" y="-98.5" font-family="Times New Roman,serif" font-size="10.00" fill="#767676">&gt;=5.3.0</text>
</g>
<!-- monolog/monolog&#45;&gt;psr/log -->
<g id="edge25" class="edge"><title>monolog/monolog&#45;&gt;psr/log</title>
<path fill="none" stroke="#1a2833" d="M526.372,-190.824C512.635,-185.69 498.034,-179.64 485,-173 457.938,-159.214 429.377,-139.995 408.577,-125.028"/>
<polygon fill="#1a2833" stroke="#1a2833" points="410.59,-122.165 400.445,-119.11 406.47,-127.825 410.59,-122.165"/>
<text text-anchor="middle" x="493.5" y="-152.5" font-family="Times New Roman,serif" font-size="10.00" fill="#767676">~1.0</text>
</g>
<!-- vlucas/phpdotenv&#45;&gt;php -->
<g id="edge37" class="edge"><title>vlucas/phpdotenv&#45;&gt;php</title>
<path fill="none" stroke="#1a2833" d="M654.28,-82.822C628.105,-69.4873 591.885,-51.0356 565.12,-37.4007"/>
<polygon fill="#1a2833" stroke="#1a2833" points="566.578,-34.2157 556.079,-32.795 563.401,-40.453 566.578,-34.2157"/>
<text text-anchor="middle" x="633.5" y="-57" font-family="Times New Roman,serif" font-size="10.00" fill="#767676">&gt;=5.3.9</text>
</g>
<!-- league/commonmark&#45;&gt;php -->
<g id="edge22" class="edge"><title>league/commonmark&#45;&gt;php</title>
<path fill="none" stroke="#1a2833" d="M907.829,-356.728C891.971,-341.734 873,-318.473 873,-293 873,-293 873,-293 873,-100 873,-76.5158 866.605,-66.9284 847,-54 801.701,-24.128 640.302,-19.4663 566.417,-18.9334"/>
<polygon fill="#1a2833" stroke="#1a2833" points="566.193,-15.4323 556.175,-18.8822 566.157,-22.4322 566.193,-15.4323"/>
<text text-anchor="middle" x="887.5" y="-206.5" font-family="Times New Roman,serif" font-size="10.00" fill="#767676">&gt;=5.4.8</text>
</g>
<!-- ext&#45;mbstring -->
<g id="node14" class="node"><title>ext&#45;mbstring</title>
<path fill="#eeeeee" stroke="black" d="M975,-310C975,-310 913,-310 913,-310 907,-310 901,-304 901,-298 901,-298 901,-286 901,-286 901,-280 907,-274 913,-274 913,-274 975,-274 975,-274 981,-274 987,-280 987,-286 987,-286 987,-298 987,-298 987,-304 981,-310 975,-310"/>
<text text-anchor="middle" x="944" y="-288.3" font-family="Times New Roman,serif" font-size="14.00" fill="#314b5f">ext&#45;mbstring</text>
</g>
<!-- league/commonmark&#45;&gt;ext&#45;mbstring -->
<g id="edge21" class="edge"><title>league/commonmark&#45;&gt;ext&#45;mbstring</title>
<path fill="none" stroke="#1a2833" d="M932.181,-356.822C934.15,-346.19 936.721,-332.306 938.962,-320.204"/>
<polygon fill="#1a2833" stroke="#1a2833" points="942.444,-320.623 940.823,-310.153 935.561,-319.349 942.444,-320.623"/>
<text text-anchor="middle" x="941" y="-331" font-family="Times New Roman,serif" font-size="10.00" fill="#767676">*</text>
</g>
<!-- psr/http&#45;message&#45;&gt;php -->
<g id="edge26" class="edge"><title>psr/http&#45;message&#45;&gt;php</title>
<path fill="none" stroke="#1a2833" d="M1105.7,-410.878C1094.82,-392.711 1080,-362.781 1080,-334.5 1080,-334.5 1080,-334.5 1080,-100 1080,-47.9754 690.538,-26.1751 566.479,-20.5505"/>
<polygon fill="#1a2833" stroke="#1a2833" points="566.47,-17.0468 556.324,-20.0996 566.159,-24.0399 566.47,-17.0468"/>
<text text-anchor="middle" x="1094.5" y="-248" font-family="Times New Roman,serif" font-size="10.00" fill="#767676">&gt;=5.3.0</text>
</g>
<!-- symfony/yaml&#45;&gt;php -->
<g id="edge35" class="edge"><title>symfony/yaml&#45;&gt;php</title>
<path fill="none" stroke="#1a2833" d="M451,-356.934C451,-340.541 451,-315.078 451,-293 451,-293 451,-293 451,-100 451,-73.6933 472.611,-52.6385 493.082,-38.5954"/>
<polygon fill="#1a2833" stroke="#1a2833" points="495.222,-41.3799 501.719,-33.0113 491.421,-35.5014 495.222,-41.3799"/>
<text text-anchor="middle" x="465.5" y="-206.5" font-family="Times New Roman,serif" font-size="10.00" fill="#767676">&gt;=5.5.9</text>
</g>
<!-- symfony/yaml&#45;&gt;symfony/console -->
<g id="edge36" class="edge"><title>symfony/yaml&#45;&gt;symfony/console</title>
<path fill="none" stroke="#1a2833" stroke-dasharray="5,2" d="M420.461,-356.822C398.888,-344.687 369.781,-328.314 346.449,-315.19"/>
<polygon fill="#1a2833" stroke="#1a2833" points="347.926,-312.005 337.495,-310.153 344.495,-318.106 347.926,-312.005"/>
<text text-anchor="middle" x="405.5" y="-331" font-family="Times New Roman,serif" font-size="10.00" fill="#767676">~2.8|~3.0</text>
</g>
<!-- psr/log&#45;&gt;php -->
<g id="edge27" class="edge"><title>psr/log&#45;&gt;php</title>
<path fill="none" stroke="#1a2833" d="M385.408,-82.8984C390.457,-73.1215 398.038,-61.3745 408,-54 432.408,-35.9321 465.94,-27.1672 491.516,-22.9291"/>
<polygon fill="#1a2833" stroke="#1a2833" points="492.217,-26.3632 501.589,-21.4226 491.181,-19.4402 492.217,-26.3632"/>
<text text-anchor="middle" x="422.5" y="-57" font-family="Times New Roman,serif" font-size="10.00" fill="#767676">&gt;=5.3.0</text>
</g>
<!-- symfony/debug&#45;&gt;php -->
<g id="edge32" class="edge"><title>symfony/debug&#45;&gt;php</title>
<path fill="none" stroke="#1a2833" d="M284.186,-190.925C277.908,-164.692 270.407,-114.241 295,-83 319.269,-52.1715 432.156,-32.317 491.817,-23.7921"/>
<polygon fill="#1a2833" stroke="#1a2833" points="492.536,-27.2259 501.957,-22.3792 491.569,-20.2929 492.536,-27.2259"/>
<text text-anchor="middle" x="309.5" y="-98.5" font-family="Times New Roman,serif" font-size="10.00" fill="#767676">&gt;=5.5.9</text>
</g>
<!-- symfony/debug&#45;&gt;psr/log -->
<g id="edge33" class="edge"><title>symfony/debug&#45;&gt;psr/log</title>
<path fill="none" stroke="#1a2833" d="M303.299,-190.969C317.81,-173.687 340.433,-146.743 356.983,-127.032"/>
<polygon fill="#1a2833" stroke="#1a2833" points="359.691,-129.25 363.44,-119.341 354.33,-124.749 359.691,-129.25"/>
<text text-anchor="middle" x="355.5" y="-152.5" font-family="Times New Roman,serif" font-size="10.00" fill="#767676">~1.0</text>
</g>
<!-- symfony/polyfill&#45;mbstring&#45;&gt;php -->
<g id="edge34" class="edge"><title>symfony/polyfill&#45;mbstring&#45;&gt;php</title>
<path fill="none" stroke="#1a2833" d="M129.078,-136.706C147.745,-113.466 184.408,-72.8943 226,-54 272.546,-32.855 421.252,-23.696 491.53,-20.4713"/>
<polygon fill="#1a2833" stroke="#1a2833" points="491.873,-23.9597 501.708,-20.0208 491.563,-16.9665 491.873,-23.9597"/>
<text text-anchor="middle" x="195.5" y="-98.5" font-family="Times New Roman,serif" font-size="10.00" fill="#767676">&gt;=5.3.3</text>
</g>
</g>
</svg>
